<?xml version="1.0" encoding="utf-8"?>
<!-- Generator: Adobe Illustrator 21.0.0, SVG Export Plug-In . SVG Version: 6.00 Build 0)  -->
<svg version="1.1" id="Capa_1" xmlns="http://www.w3.org/2000/svg" xmlns:xlink="http://www.w3.org/1999/xlink" x="0px" y="0px"
	 viewBox="0 0 800 203.9" style="enable-background:new 0 0 800 203.9;" xml:space="preserve">
<g>
	<path d="M44.1,18.5c10.7,0.4,23.8,0.9,38.7,1.3c7.5,0.2,15.4,0.5,23.8,0.7c8.4,0.2,17.2,0.4,26.4,0.7c9.2,0.2,18.8,0.5,28.7,0.7
		c9.9,0.2,20.2,0.4,30.7,0.6c21.1,0.4,43.3,0.7,66.3,1c10.9,0.1,21.9,0.2,33.1,0.3c-15.3,3.9-21.1,23.9-12.9,37.4
		c2.7,4.5,6.7,8.1,11.2,10.7c-0.5,0.4-1.1,0.8-1.7,1.3c-2.5,1.7-5.8,3.6-9.7,5.2c-3.9,1.6-8.5,3-13.6,3.8
		c-5.1,0.8-10.7,1.1-16.6,0.8c-5.9-0.3-12.1-1.2-18.5-2.6c-6.3-1.5-12.8-3.4-19.2-5.8c-1.6-0.6-3.2-1.3-4.8-1.9
		c-1.7-0.6-3.3-1.3-5-1.9c-3.6-1.3-7.2-2.4-11-3.1c-3.8-0.7-7.7-1.1-11.7-0.9c-4,0.1-8,1.1-11.8,2.7c-1.9,0.9-3.7,2-5.3,3.2
		c-1.6,1.3-3.1,2.8-4.3,4.4c-2.5,3.3-4.1,7.1-4.8,10.9c-1.5,7.6,0.2,15.1,3.6,21.1c1.7,3,3.9,5.6,6.4,7.7c2.5,2.1,5.2,3.6,8,4.6
		c2.8,1,5.6,1.5,8.2,1.6c2.6,0.1,5.1-0.2,7.3-0.5c4.5-0.8,8.1-2.3,11-3.7c2.9-1.4,5-2.7,6.4-3.7c1.4-1,2.1-1.5,2.1-1.5
		s-0.8,0.4-2.4,1c-0.8,0.4-1.7,0.7-2.9,1.2c-0.6,0.2-1.2,0.4-1.8,0.7c-0.7,0.2-1.3,0.5-2.1,0.7c-2.9,0.9-6.6,1.8-10.8,2
		c-4.1,0.2-8.9-0.3-13.2-2.4c-2.2-1.1-4.2-2.5-6.1-4.3c-1.8-1.8-3.4-4-4.5-6.4c-2.4-4.9-3.2-10.9-1.8-16.4c0.3-1.4,0.8-2.7,1.4-4
		c0.6-1.3,1.3-2.5,2.2-3.5c0.9-1.1,1.9-2,3-2.9c1.1-0.8,2.4-1.5,3.7-2.1c5.3-2.3,12-2.3,18.4-1c3.2,0.6,6.5,1.6,9.6,2.7
		c1.7,0.6,3.3,1.2,5,1.9c1.7,0.6,3.4,1.3,5.1,1.9c1.7,0.6,3.4,1.1,5.1,1.7c1.7,0.5,3.4,1,5.1,1.4c1.7,0.5,3.4,0.8,5.1,1.3
		c1.7,0.4,3.4,0.7,5.1,1c6.8,1.2,13.5,1.8,19.9,1.6c6.4-0.1,12.4-1,17.8-2.4c5.4-1.4,10.1-3.5,14-5.7c3.9-2.2,7-4.7,9.3-6.8
		c0.7-0.7,1.3-1.3,1.9-1.9c3.2,1.6,6.6,2.8,10.2,3.3c5.8,0.9,11.7,0.4,17.4-1.2c-1.6,1.2-3.3,2.5-5.1,3.7c-6.8,4.7-15.3,9.5-24.8,13
		c-2.4,0.9-4.9,1.7-7.4,2.4c-1.2,0.4-2.5,0.7-3.8,1c-1.3,0.4-2.6,0.6-3.9,0.9c-5.2,1.1-10.6,1.8-16,2.1c-2.8,0.1-5.6,0.3-8.4,0.4
		c-1.5,0.1-3,0.3-4.5,0.5c-1.5,0.2-2.9,0.5-4.4,0.7c-5.8,1.1-11.5,3.1-16.5,6.4c-1.3,0.8-2.4,1.7-3.6,2.7c-1.1,1-2.2,2-3.1,3.2
		c-1.9,2.3-3.4,4.9-4.2,7.7c-0.8,2.8-1,5.6-0.6,8.3c0.4,2.7,1.3,5.1,2.6,7.2c0.6,1.1,1.3,2,2,2.9c0.4,0.4,0.8,0.8,1.1,1.2l0.6,0.6
		c0.2,0.2,0.4,0.3,0.6,0.5c0.4,0.3,0.8,0.7,1.2,1c0.4,0.3,0.8,0.6,1.3,0.9c0.8,0.6,1.7,1,2.5,1.4c3.3,1.7,6.5,2.2,9,2.5
		c0.6,0,1.2,0.1,1.8,0.1c0.6,0,1.1,0,1.6,0c0.5,0,0.9,0,1.4,0c0.4,0,0.8-0.1,1.1-0.1c1.3-0.2,2-0.3,2-0.3s-0.7-0.1-2-0.2
		c-0.3,0-0.7-0.1-1.1-0.1c-0.4-0.1-0.8-0.2-1.3-0.3c-0.5-0.1-1-0.2-1.5-0.3c-0.5-0.1-1.1-0.3-1.7-0.5c-2.3-0.7-5-1.8-7.6-3.7
		c-0.6-0.5-1.3-1-1.9-1.5c-0.3-0.3-0.6-0.6-0.9-0.9c-0.3-0.3-0.6-0.6-0.9-1c-0.3-0.3-0.6-0.7-0.8-1c-0.3-0.4-0.5-0.7-0.8-1.1
		c-0.4-0.8-0.9-1.6-1.3-2.4c-1.5-3.4-1.7-7.4-0.2-11.1c0.7-1.8,1.9-3.6,3.4-5.1c0.4-0.4,0.7-0.8,1.2-1.1c0.4-0.4,0.8-0.7,1.3-1.1
		c0.9-0.6,1.8-1.3,2.9-1.9c2-1.2,4.3-2.1,6.6-2.9c1.2-0.3,2.4-0.7,3.7-1c1.3-0.2,2.5-0.6,3.8-0.8c1.3-0.2,2.6-0.4,3.9-0.5
		c1.3-0.1,2.6-0.2,3.9-0.3c2.8-0.1,5.7-0.2,8.5-0.3c5.9-0.4,11.7-1.2,17.4-2.6c2.8-0.7,5.6-1.5,8.3-2.4c2.7-0.9,5.3-1.9,7.8-3.1
		c5-2.2,9.7-4.8,13.9-7.6c4.2-2.8,7.9-5.7,11.2-8.6c3.2-2.9,6-5.8,8.3-8.4c0.8-0.9,1.5-1.8,2.2-2.7c0.3-0.2,0.6-0.3,1-0.5
		c13.2-7.4,22-20.2,27.5-34c-0.7,1.6-2.9,3.7-4.1,5.1c-3.2,3.8-6.7,7.4-10.5,10.6c-7.1,6.1-15.3,11.8-24.8,12.9
		c-5.5,0.6-11.7-0.9-16.7-3.2c-3.5-1.6-6.8-4-9.1-7.1c-0.8-1.1-1.6-2.3-2.1-3.6c-2.5-5.7-1.6-12.2,2.8-16.6c4-4,10-5.1,14.6-1.5
		c3.3,2.6,4.4,9.4,0.3,12.7c-3.7,2.9-8.1,1.7-10.1-0.9c6.9,2.5,8.4-5.3,4.9-8.2c-2-1.6-5.8-1.4-7.9,1.7c-2.1,3-2,7.7,1.1,10.5
		c6.5,6,17.8,2.4,20.6-5.6c3.2-9-3.8-17.2-12.1-19.7c3,0,5.9,0.1,8.9,0.1c6,0,12,0.1,18,0.1c24.2,0.2,48.7,0.2,73.2,0.2
		c24.5,0,49.1-0.1,73.2-0.2c2.3,0,4.5,0,6.7,0c-8.1,2.7-14.8,10.7-11.7,19.6c2.8,8,14,11.6,20.6,5.6c3.1-2.8,3.2-7.5,1.1-10.5
		c-2.1-3.1-5.9-3.3-7.9-1.7c-3.5,2.9-2,10.7,4.9,8.2c-2,2.6-6.4,3.8-10.1,0.9c-4.2-3.3-3-10.2,0.3-12.7c4.7-3.6,10.6-2.5,14.6,1.5
		c4.4,4.4,5.4,11,2.8,16.6c-0.6,1.3-1.3,2.5-2.1,3.6c-2.3,3.1-5.6,5.5-9.1,7.1c-5,2.3-11.2,3.8-16.7,3.2
		c-9.5-1.1-17.8-6.8-24.8-12.9c-3.8-3.3-7.2-6.8-10.5-10.6c-1.2-1.4-3.5-3.4-4.1-5.1c5.5,13.8,14.3,26.6,27.5,34
		c0.3,0.2,0.6,0.3,1,0.5c0.7,0.9,1.4,1.7,2.2,2.7c2.3,2.7,5.1,5.5,8.3,8.4c3.2,2.9,7,5.8,11.2,8.6c4.2,2.8,8.8,5.4,13.9,7.6
		c2.5,1.1,5.1,2.1,7.8,3.1c2.7,0.9,5.5,1.7,8.3,2.4c5.6,1.4,11.5,2.2,17.4,2.6c2.8,0.1,5.7,0.2,8.5,0.3c1.3,0.1,2.6,0.3,3.9,0.3
		c1.3,0.1,2.6,0.4,3.9,0.5c1.3,0.2,2.5,0.5,3.8,0.8c1.2,0.3,2.4,0.7,3.7,1c2.3,0.8,4.6,1.7,6.6,2.9c1.1,0.5,1.9,1.2,2.9,1.9
		c0.4,0.3,0.8,0.7,1.3,1.1c0.4,0.3,0.8,0.7,1.2,1.1c1.5,1.5,2.7,3.3,3.4,5.1c1.5,3.7,1.3,7.7-0.2,11.1c-0.3,0.9-0.8,1.6-1.3,2.4
		c-0.2,0.4-0.5,0.7-0.8,1.1c-0.3,0.4-0.5,0.7-0.8,1c-0.3,0.3-0.6,0.7-0.9,1c-0.3,0.3-0.6,0.6-0.9,0.9c-0.6,0.6-1.3,1.1-1.9,1.5
		c-2.6,1.9-5.3,3-7.6,3.7c-0.6,0.2-1.1,0.3-1.7,0.5c-0.5,0.1-1,0.2-1.5,0.3c-0.5,0.1-0.9,0.2-1.3,0.3c-0.4,0.1-0.8,0.1-1.1,0.1
		c-1.3,0.1-2,0.2-2,0.2s0.7,0.1,2,0.3c0.3,0,0.7,0.1,1.1,0.1c0.4,0,0.9,0,1.4,0c0.5,0,1,0.1,1.6,0c0.6,0,1.2-0.1,1.8-0.1
		c2.5-0.3,5.7-0.9,9-2.5c0.8-0.4,1.7-0.9,2.5-1.4c0.4-0.3,0.8-0.5,1.3-0.9c0.4-0.3,0.8-0.7,1.2-1c0.2-0.2,0.4-0.3,0.6-0.5l0.6-0.6
		c0.4-0.4,0.8-0.8,1.1-1.2c0.7-0.9,1.4-1.8,2-2.9c1.2-2.1,2.2-4.5,2.6-7.2c0.4-2.7,0.2-5.5-0.6-8.3c-0.8-2.8-2.3-5.4-4.2-7.7
		c-0.9-1.2-2-2.2-3.1-3.2c-1.2-0.9-2.3-1.9-3.6-2.7c-5-3.3-10.7-5.2-16.5-6.4c-1.5-0.2-2.9-0.6-4.4-0.7c-1.5-0.2-3-0.4-4.5-0.5
		c-2.8-0.1-5.6-0.3-8.4-0.4c-5.4-0.3-10.8-1-16-2.1c-1.3-0.3-2.6-0.5-3.9-0.9c-1.3-0.3-2.6-0.6-3.8-1c-2.5-0.7-5-1.6-7.4-2.4
		c-9.6-3.6-18-8.3-24.8-13c-1.8-1.2-3.5-2.5-5.1-3.7c5.6,1.6,11.6,2.2,17.4,1.2c3.5-0.6,7-1.7,10.2-3.3c0.6,0.6,1.2,1.2,1.9,1.9
		c2.3,2.2,5.4,4.7,9.3,6.8c3.9,2.2,8.6,4.3,14,5.7c5.4,1.4,11.4,2.3,17.8,2.4c6.4,0.1,13.1-0.4,19.9-1.6c1.7-0.3,3.4-0.6,5.1-1
		c1.7-0.4,3.4-0.7,5.1-1.3c1.7-0.5,3.4-0.9,5.1-1.4c1.7-0.6,3.4-1.1,5.1-1.7c1.7-0.6,3.4-1.2,5.1-1.9c1.7-0.6,3.3-1.2,5-1.9
		c3.1-1.1,6.4-2,9.6-2.7c6.5-1.3,13.1-1.3,18.4,1c1.3,0.6,2.6,1.3,3.7,2.1c1.1,0.8,2.1,1.8,3,2.9c0.9,1.1,1.6,2.3,2.2,3.5
		c0.6,1.3,1.1,2.6,1.4,4c1.4,5.5,0.5,11.5-1.8,16.4c-1.1,2.5-2.7,4.6-4.5,6.4c-1.8,1.8-3.9,3.2-6.1,4.3c-4.4,2.1-9.1,2.6-13.2,2.4
		c-4.2-0.3-7.8-1.1-10.8-2c-0.7-0.2-1.4-0.5-2.1-0.7c-0.6-0.2-1.3-0.4-1.8-0.7c-1.1-0.5-2.1-0.8-2.9-1.2c-1.5-0.7-2.4-1-2.4-1
		s0.7,0.5,2.1,1.5c1.4,0.9,3.5,2.3,6.4,3.7c2.9,1.4,6.5,2.9,11,3.7c2.2,0.4,4.7,0.6,7.3,0.5c2.6-0.1,5.4-0.6,8.2-1.6
		c2.8-1,5.5-2.5,8-4.6c2.5-2.1,4.7-4.7,6.4-7.7c3.4-5.9,5.1-13.5,3.6-21.1c-0.7-3.8-2.3-7.6-4.8-10.9c-1.2-1.6-2.7-3.1-4.3-4.4
		c-1.6-1.3-3.4-2.4-5.3-3.2c-3.8-1.7-7.8-2.6-11.8-2.7c-4-0.2-7.9,0.2-11.7,0.9c-3.8,0.8-7.4,1.8-11,3.1c-1.7,0.6-3.3,1.3-5,1.9
		c-1.6,0.6-3.2,1.3-4.8,1.9c-6.4,2.4-12.9,4.3-19.2,5.8c-6.3,1.4-12.5,2.4-18.5,2.6c-5.9,0.3-11.5,0-16.6-0.8
		c-5.1-0.8-9.7-2.2-13.6-3.8c-3.9-1.6-7.2-3.5-9.7-5.2c-0.6-0.4-1.2-0.8-1.7-1.3c4.6-2.6,8.5-6.2,11.2-10.7
		c8.1-13.3,2.5-33-12.3-37.3c5.8,0,11.5-0.1,17.2-0.1c11.8-0.1,23.5-0.2,35-0.4c23-0.3,45.2-0.6,66.3-1c10.5-0.2,20.8-0.4,30.7-0.6
		c9.9-0.2,19.5-0.5,28.7-0.7c9.2-0.2,18-0.4,26.4-0.7c8.4-0.3,16.3-0.5,23.8-0.7c15-0.4,28-0.9,38.7-1.3c10.7-0.4,19.2-0.8,24.9-1
		c5.8-0.3,8.8-0.4,8.8-0.4s-3.1-0.1-8.8-0.4c-5.8-0.2-14.2-0.7-24.9-1c-10.7-0.4-23.8-0.9-38.7-1.3c-7.5-0.2-15.4-0.5-23.8-0.7
		c-8.4-0.3-17.2-0.4-26.4-0.7c-9.2-0.2-18.8-0.5-28.7-0.7c-9.9-0.2-20.2-0.4-30.7-0.6c-21.1-0.4-43.3-0.7-66.3-1
		c-11.5-0.1-23.2-0.2-35-0.4c-11.8-0.1-23.8-0.2-35.9-0.3c-24.2-0.2-48.7-0.2-73.2-0.2c-24.5,0-49.1,0.1-73.2,0.2
		c-6,0-12.1,0.1-18,0.1c-6,0.1-11.9,0.1-17.9,0.2c-11.8,0.1-23.5,0.2-35,0.4c-23,0.3-45.2,0.6-66.3,1c-10.5,0.2-20.8,0.4-30.7,0.6
		c-9.9,0.2-19.5,0.5-28.7,0.7c-9.2,0.2-18,0.5-26.4,0.7c-8.4,0.3-16.3,0.5-23.8,0.7c-15,0.4-28,0.9-38.7,1.3
		c-10.7,0.4-19.2,0.8-24.9,1c-5.8,0.3-8.8,0.4-8.8,0.4s3.1,0.1,8.8,0.4C24.9,17.7,33.4,18.1,44.1,18.5z"/>
	<path d="M64.4,108.5c4.5,3.8,10.7,5.8,16.5,4.9c11.2-1.8,20.8-17.8,10.1-26.3c-5.9-4.7-16-2.1-18.1,5.5c-1,3.6,1.2,7.1,4.2,8.4
		c3,1.3,6-0.3,6.8-2.5c1.3-3.8-3.5-9-7.6-3.8c0.3-2.9,3-5.9,7.2-5.5c4.7,0.5,7.1,6.2,5.8,9.7c-2.5,6.8-11.3,7.5-16.6,3.5
		c-4.1-3.1-6.1-8.5-5.3-13.5c1.1-7.2,7.1-12.6,13.2-16.4c11.9-7.6,25.3-10.7,39.1-12.6c6.3-0.8,12.6-1.3,19-1.5
		c-6.7,2.8-10.9,8.9-16.2,16.1c3.2,0.4,6.3-0.1,9.4-1.6c-6.4,6-5.5,15.8-1.2,22.8c1.4-19.8,17.1-28.6,35.2-31.4
		c4.9-0.8,11.2-0.9,16.6-2.6c14.3,2.7,28.1,6.9,42.1,11.8c16.3,5.7,34.8,9.6,50-1c2.7-1.9,2-5.1-0.1-6.7c-0.5-0.6-1.2-1.1-2.3-1
		c-22.2,0.3-43.8-8.1-60-23.3c-6.7-6.3-13.6-16.9-24.4-14.9c-8,1.4-13,11-6.8,17.4c2.7,2.8,7-1.5,4.3-4.3c-1.3-1.3-1.2-2.9-0.5-4.5
		c1.2-2.6,4.4-2.9,6.9-2.5c4.7,0.8,8.2,4.8,11.2,8c6,6.4,12.5,12,19.9,16.6c10.9,6.8,23.3,11.1,36,12.7c-10.3,2-21.6-1.4-31.6-4.6
		c-11.9-3.7-23.3-7.9-35.4-10.7c4.1-6.4,6.5-15.4-2.5-18.4c0,0,5,13.5-12.2,10.7c-8.1-1.3-10.8-7.8-18.2-7.3
		c-0.8,3.6,0.2,5.4,1.2,7.2c-6.4-2.6-12.7-1.6-19.5-1.5c0.1,1.6,0.6,3,1.3,4.2c-18.1,0.2-36.1,2.8-53.1,8.3
		C81.3,60.2,74,63.2,67.9,68c-6.1,4.8-10.9,11.7-11.9,19.4C55.1,95.2,58.3,103.5,64.4,108.5z"/>
	<path d="M423,68.4c-6.2-5.5-14.8-9.2-25.7-11c8.7,9.1,13.1,18.9,13.1,29.3c0,2.4-0.5,6.1-1.4,10.9c-1,4.8-1.4,8.5-1.4,10.9
		c-0.1,5.1,1.8,9.6,5.7,13.6c3.8,3.8,8.3,6.1,13.7,7.1c-2.4-4.1-3.6-8.1-3.6-11.9c0-3.4,1.5-8,4.5-13.8c3-5.8,4.5-10.5,4.5-14.1
		C432.3,80.9,429.2,73.9,423,68.4z"/>
	<path d="M353.3,89.4c0,3.6,1.5,8.3,4.6,14.1c3.1,5.8,4.6,10.4,4.6,13.8c0,3.7-1.2,7.7-3.7,11.9c5.3-0.9,9.9-3.3,13.7-7.1
		c3.9-4,5.8-8.5,5.8-13.6c0-2.4-0.6-6.4-1.8-12.2c-1-5.1-1.3-9.1-1.1-12c0.9-9.8,5.3-18.8,13.1-27c-10.9,1.8-19.5,5.4-25.7,11
		C356.4,73.9,353.3,80.9,353.3,89.4z"/>
	<path d="M406.8,87.2c0-10.7-4.7-20.6-14-29.8c-9.4,9.2-14,19.1-14,29.8c0,10.7,4.7,22.3,14,34.9C402.2,109.5,406.8,97.9,406.8,87.2
		z"/>
	<path d="M348.9,124.2c-9-9.2-15.8,0.3-14.5,9.8c-7.9,33-22.2,46.6-44.5,42.5c-9.8-1.8-15.7,2-17.7,5.7c-1,1.9-1.1,3.8-0.4,5.5
		c1.5,3.2,6.9,6.3,17.7,5.5c24.9-1.9,44.1-27.5,45.4-56.7c1,3.4,3.3,6.6,7,8.6c11.2,6,29.5-4.6,29-17l-0.1-1.3
		c-0.1,4.2-16.9,13.5-17.7-0.4c-2.4,4.5-2.7,6.3,0.8,10.6c-2,2.2-5.4,1-7.3-0.8C342.7,131.6,343.6,125.9,348.9,124.2z"/>
	<path d="M349,124.1c0,0-0.1,0-0.1,0C348.9,124.2,348.9,124.2,349,124.1C349.4,124.6,349.4,124.6,349,124.1z"/>
	<path d="M436.7,124.2C436.8,124.2,436.8,124.2,436.7,124.2C436.7,124.2,436.7,124.2,436.7,124.2
		C436.2,124.6,436.2,124.6,436.7,124.2z"/>
	<path d="M432.5,126.4c-0.8,13.9-17.6,4.6-17.7,0.4l-0.1,1.3c-0.4,12.4,17.8,23,29,17c4.6-2.5,7-6.7,7.6-11
		c0.3,30.2,19.8,57.2,45.5,59.1c10.8,0.8,16.3-2.3,17.7-5.5c0.8-1.7,0.7-3.7-0.4-5.5c-2-3.8-7.9-7.5-17.7-5.7
		c-22.7,4.2-37.2-10-45-44.4c0.2-8.7-6.3-16.4-14.7-7.8c5.2,1.7,6.1,7.4,2.1,12c-1.9,1.8-5.2,3.1-7.3,0.8
		C435.1,132.7,434.9,130.9,432.5,126.4z"/>
	<path d="M372.6,141.8l20.2,51.5l20.2-51.5c0,0,4.9-9.7-10.9-21.4c0,0-3.4,6.8-9.3,8.8c-6-1.9-9.3-8.8-9.3-8.8
		C367.7,132.2,372.6,141.8,372.6,141.8z"/>
	<path d="M392.8,32.2c0,0-30,12.2-30,27.4c0,0,12.6-6.4,30-6.4c17.5,0,30,6.4,30,6.4C422.8,44.4,392.8,32.2,392.8,32.2z"/>
	<path d="M321.6,96.9l-0.1,0.1l-0.2,0.1l-0.9,0.6l-0.9,0.6c-0.3,0.2-0.6,0.3-0.8,0.5c-0.6,0.3-1.1,0.6-1.7,0.9
		c-2.4,1.3-5,2.4-7.8,3.4c-5.6,2.1-12,3.8-18.9,6.5c-0.9,0.4-1.7,0.7-2.6,1.1c-0.9,0.4-1.7,0.8-2.6,1.2c-0.9,0.4-1.7,0.9-2.6,1.3
		l-0.3,0.2l-0.1,0l-0.2,0.1l-0.1,0.1l-0.6,0.3l-1.1,0.7l-0.3,0.2l-0.3,0.2l-0.7,0.5l-1.4,0.9c-0.9,0.6-1.6,1.3-2.5,2
		c-0.8,0.7-1.6,1.5-2.3,2.2c-0.7,0.8-1.5,1.6-2.2,2.5c-0.7,0.9-1.4,1.8-2,2.7c-0.6,1-1.2,1.9-1.7,3l-0.7,1.6l-0.4,0.8l-0.3,0.9
		c-0.2,0.5-0.3,0.8-0.4,1.3c-0.2,0.6-0.3,1.3-0.5,1.9c-0.2,0.7-0.2,1.2-0.3,1.8c-0.1,0.6-0.2,1.2-0.2,1.8l-0.1,1.8
		c0,0.6,0,1.2,0,1.7c0.1,2.3,0.4,4.6,1,6.9c0.3,1.1,0.7,2.2,1,3.3c0.4,1.1,0.9,2.1,1.4,3.1c1,2.1,2.3,4,3.8,5.8
		c0.4,0.4,0.7,0.9,1.1,1.3l1.2,1.2c0.4,0.4,0.9,0.8,1.3,1.2l0.7,0.6l0.2,0.1c0.1,0.1-0.1-0.1,0.3,0.2l0.1,0l0.3,0.2l1.1,0.8
		c0.5,0.3,1.1,0.7,1.6,1l0.8,0.5l0.8,0.4c0.5,0.2,1,0.5,1.5,0.7c2.1,0.9,4.2,1.5,6.4,2c2.2,0.4,4.3,0.6,6.5,0.6
		c2.2,0,4.3-0.2,6.4-0.6c2.1-0.4,4.1-1,6.1-1.8l1.4-0.6c0.5-0.2,0.9-0.5,1.4-0.7l0.7-0.4l0.1,0c0,0,0.5-0.3,0.3-0.2l0.1-0.1l0.3-0.2
		l1.1-0.7l0.3-0.2l0.1-0.1l0.2-0.1l0.7-0.5l1.3-1c0.8-0.7,1.5-1.4,2.3-2.1c2.8-2.9,5-6.4,6.2-10.3c0.1-0.5,0.3-1,0.4-1.4l0.1-0.4
		l0.1-0.3l0-0.1l0-0.1l0.1-0.6l0-0.3l0.1-0.4l0.1-0.9c0.1-0.6,0-1,0.1-1.6c0-2-0.3-3.9-0.9-5.7c-1.1-3.6-3-6.6-5.4-9
		c-2.4-2.4-5.3-4.1-8.5-4.8c-1.6-0.3-3.2-0.4-4.7-0.2c-1.5,0.2-2.9,0.7-4.1,1.3c-1.2,0.6-2.3,1.3-3.2,2.1l-0.2,0.1l-0.2,0.1
		l-0.1,0.1l-0.3,0.3c-0.2,0.2-0.3,0.3-0.6,0.6c-0.4,0.5-0.9,1-1.1,1.5c-1.2,1.9-1.8,3.9-2,5.7c-0.2,1.8,0,3.4,0.4,4.7
		c0.4,1.3,0.9,2.3,1.5,3c0.2,0.4,0.5,0.7,0.8,0.9c0.2,0.3,0.4,0.4,0.6,0.6c0.3,0.3,0.5,0.4,0.5,0.4s-0.1-0.2-0.4-0.6
		c-0.1-0.2-0.3-0.4-0.4-0.7c-0.1-0.3-0.3-0.6-0.5-1c-0.6-1.5-1-4.1,0-6.8c0.5-1.4,1.3-2.8,2.4-3.9c0.3-0.3,0.6-0.5,0.8-0.7
		c0.1-0.1,0.4-0.3,0.6-0.4l0.3-0.2l0.1-0.1c-0.2,0.1,0,0-0.1,0.1l0,0l0.2-0.1c0.8-0.4,1.6-0.8,2.5-1c0.9-0.2,1.8-0.3,2.6-0.3
		c0.9,0,1.8,0.2,2.6,0.6c1.7,0.7,3.3,2,4.6,3.7c1.3,1.7,2.2,3.9,2.6,6.1c0.2,1.1,0.2,2.2,0.1,3.3c0,0.2-0.1,0.6-0.1,0.7l-0.1,0.3
		l0,0.1l-0.1,0.3l-0.2,0.6l0,0.1l0,0.1c0.1-0.4,0-0.1,0-0.1l-0.1,0.2l-0.3,0.8c-0.9,2.1-2.4,4.2-4.4,5.8c-0.5,0.4-1,0.8-1.5,1.2
		l-0.7,0.5l-0.4,0.2l-0.1,0.1l-0.1,0.1l-0.3,0.2l-1.1,0.6l-0.3,0.2l-0.1,0.1c-0.2,0.1,0.2-0.1,0.2-0.1l-0.1,0l-0.5,0.2
		c-0.3,0.1-0.6,0.3-0.9,0.4l-1,0.3c-1.3,0.4-2.6,0.7-4,0.9c-1.4,0.2-2.8,0.2-4.1,0.2c-2.8-0.2-5.5-0.8-8-2c-0.3-0.1-0.6-0.3-0.9-0.5
		l-0.5-0.2l-0.4-0.2c-0.2-0.2-0.4-0.3-0.7-0.5l-1.1-0.8l-0.2-0.1c0,0-0.1-0.1,0,0l-0.1-0.1l-0.4-0.3c-0.2-0.2-0.5-0.4-0.7-0.7
		l-0.7-0.7c-0.2-0.2-0.4-0.5-0.6-0.8c-0.8-1-1.6-2.2-2.2-3.4c-0.3-0.6-0.6-1.3-0.8-1.9c-0.2-0.7-0.5-1.3-0.6-2
		c-0.4-1.3-0.6-2.7-0.6-4l0-1l0.1-1c0-0.3,0.1-0.7,0.1-1c0-0.3,0.1-0.7,0.1-0.9c0.1-0.2,0.1-0.5,0.1-0.7c0.1-0.4,0.3-0.8,0.4-1.3
		l0.1-0.3l0-0.1l0.2-0.4l0.4-0.9c0.3-0.6,0.7-1.2,1-1.8c0.4-0.6,0.8-1.1,1.2-1.7l1.4-1.7l1.5-1.6c0.6-0.5,1.1-1,1.7-1.5l0.8-0.6
		l0.4-0.3l0.2-0.2l0.3-0.2l1.1-0.7l0.6-0.4l0.1-0.1c0,0,0,0,0,0l0.2-0.1c0.7-0.4,1.3-0.8,2-1.2c0.7-0.4,1.4-0.8,2.1-1.1
		c0.7-0.4,1.4-0.7,2.2-1.1c5.8-2.8,12.2-5.1,18.2-8.1c3-1.5,5.9-3.1,8.5-5c0.7-0.5,1.4-1,2-1.5c0.3-0.3,0.7-0.5,1-0.8l0.8-0.7
		l0.8-0.7l0.5-0.4l0.4-0.4c0.5-0.5,1.1-1.1,1.6-1.6c4.1-4.4,7-9.1,8.7-13.6c1.7-4.5,2.4-8.6,2.6-11.9c0.2-3.3-0.2-5.9-0.4-7.7
		c-0.1-0.9-0.3-1.5-0.4-1.9c-0.1-0.4-0.1-0.7-0.1-0.7s-0.1,0.9-0.2,2.7c-0.2,1.7-0.5,4.2-1.4,7.2c-0.9,3-2.3,6.5-4.5,10.1
		c-2.2,3.6-5.3,7.2-9.3,10.3c-0.5,0.4-1,0.8-1.5,1.1L321.6,96.9L321.6,96.9C321.5,96.9,321.7,96.8,321.6,96.9z"/>
	<path d="M63.9,26L63.9,26l-0.2-0.1l-0.8-0.3c-2.2-0.8-4.5-0.9-6.8-0.6c-0.6,0.1-1.1,0.2-1.7,0.3l-0.9,0.3c-0.3,0.1-0.6,0.2-0.8,0.3
		L52,26.1l-0.2,0.1l-0.1,0l-0.2,0.1l-0.4,0.2c-0.5,0.2-1.1,0.5-1.6,0.8c-2,1.2-3.8,2.9-5.2,4.9c-0.7,1-1.3,2.1-1.9,3.2
		c-0.5,1.1-0.9,2.3-1.2,3.6c-0.1,0.3-0.1,0.6-0.2,0.9L41,40.4l-0.1,0.5c0,0.4-0.1,0.8-0.1,1.1l0,0.7l0,0.2l0,0l0,0.2l0,0.1l0,0.5
		c0,0.3,0,0.7,0.1,1c0.1,0.7,0.2,1.3,0.4,1.9c0.3,1.3,0.8,2.5,1.4,3.7c0.6,1.2,1.3,2.3,2.1,3.3c1.7,2,3.8,3.6,6.3,4.8l1.1,0.4
		c0.3,0.1,0.5,0.2,0.7,0.2l0.6,0.2l0.5,0.1l1,0.2c0.6,0.1,1.3,0.1,1.9,0.2c0.6,0,1.3,0,1.9,0c2.5-0.1,4.8-0.7,7-1.6l0.7-0.3l0.3-0.1
		l0.1,0l0.2-0.1l0,0l0.2-0.1c0.5-0.2,0.9-0.5,1.4-0.7c0.5-0.2,0.9-0.5,1.4-0.8c0.4-0.3,0.9-0.6,1.3-0.8c3.4-2.2,6.1-4.5,8.8-6.3
		c0.7-0.4,1.3-0.9,1.9-1.3c0.6-0.3,1.2-0.7,1.8-1c0.7-0.3,1.5-0.6,2.2-0.9l0.5-0.2l0.1-0.1l0.1,0c0,0,0.1,0,0,0l0.1,0
		c0.3-0.1,0.7-0.2,1-0.3c2.6-0.8,5.1-1.1,7.3-1c1.1,0,2.2,0.2,3.2,0.4c1,0.2,1.8,0.5,2.7,0.7c0.8,0.3,1.5,0.6,2.1,0.8
		c0.3,0.1,0.6,0.3,0.8,0.4c0.3,0.1,0.5,0.3,0.7,0.4c0.8,0.4,1.3,0.7,1.3,0.7s-0.3-0.4-1-1.1c-0.3-0.3-0.7-0.8-1.2-1.2
		c-0.5-0.4-1.2-1-1.9-1.5c-0.8-0.5-1.6-1-2.7-1.5c-1-0.4-2.1-1-3.4-1.3c-2.5-0.8-5.6-1-8.9-0.6c-0.4,0.1-0.8,0.1-1.2,0.2l-0.3,0
		l-0.4,0.1l-0.6,0.1c-0.8,0.2-1.5,0.3-2.3,0.6c-0.9,0.3-1.8,0.7-2.7,1c-0.9,0.4-1.6,0.8-2.5,1.2c-3.3,1.7-6.3,3.7-9.4,5.3
		c-0.4,0.2-0.8,0.4-1.1,0.6c-0.4,0.2-0.8,0.3-1.1,0.5l-1.1,0.5l-0.1,0.1l-0.1,0l-0.3,0.1l-0.7,0.2c-1.4,0.4-3,0.8-4.4,0.8
		c-0.3,0-0.7,0-1.1,0c-0.3-0.1-0.7-0.1-1-0.1L56,51.1l-0.2,0l0,0L55.6,51c-0.2-0.1-0.5-0.2-0.7-0.2c-0.1-0.1-0.2-0.1-0.3-0.1
		c-1.1-0.5-2.2-1.4-3.1-2.4c-0.4-0.5-0.8-1.1-1.1-1.7c-0.3-0.6-0.6-1.2-0.8-1.9c-0.1-0.3-0.2-0.6-0.2-1c0-0.2,0-0.3-0.1-0.5l0-0.2
		l0-0.1c0,0.1,0-0.2,0,0.1l0,0l0-0.2l0-0.7l0-0.4l0-0.2l0-0.3c0-0.2,0-0.3,0.1-0.5c0.3-1.3,0.8-2.7,1.5-3.9c0.7-1.2,1.7-2.2,2.8-3.1
		c0.3-0.2,0.6-0.4,0.8-0.6l0.2-0.1l0,0c0.1-0.1-0.2,0.1-0.1,0.1l0.1,0l0.2-0.1l0.6-0.3c0.2-0.1,0.3-0.2,0.5-0.2l0.4-0.2
		c0.3-0.1,0.6-0.2,0.9-0.3c1.3-0.3,2.5-0.4,3.7-0.2l0.4,0.1l0.1,0l0,0c-0.5-0.2-0.1,0-0.2-0.1l0.1,0l0.3,0.1l0.6,0.2
		c0.1,0,0.2,0.1,0.2,0.1l0.1,0.1c0.1,0,0.2,0.1,0.2,0.1c0.1,0.1,0.2,0.2,0.3,0.2l0.3,0.2l0.3,0.3c0.8,0.8,1.5,1.8,1.8,2.8
		c0.4,1,0.5,2.1,0.3,3c-0.1,0.2-0.1,0.4-0.2,0.6c-0.1,0.2-0.2,0.4-0.3,0.6c-0.3,0.3-0.5,0.7-0.9,1c-0.3,0.3-0.8,0.5-1.2,0.8l-0.1,0
		l0,0c0,0-0.1,0,0.1,0l0,0l-0.2,0.1c-0.1,0-0.3,0.1-0.4,0.1c-0.2,0-0.3,0.1-0.5,0.1c-0.8,0.2-1.7,0.1-2.4-0.1c-1.5-0.4-2.5-1.3-3-2
		c-0.3-0.4-0.4-0.7-0.5-0.9c-0.1-0.2-0.1-0.3-0.1-0.3c0,0-0.1,0.5,0.2,1.5c0.3,0.9,1,2.4,2.7,3.4c0.8,0.5,1.9,0.9,3.2,1
		c0.3,0,0.7,0,1.1,0c0.2,0,0.3,0,0.4-0.1l0.2,0l0.1,0l0.1,0l0.1,0c0.6-0.2,1.3-0.3,2-0.7c0.3-0.2,0.7-0.3,1-0.6
		c0.3-0.3,0.6-0.5,1-0.8c0.3-0.3,0.6-0.7,0.8-1c0.3-0.4,0.4-0.8,0.7-1.2c0.8-1.7,1-3.6,0.7-5.5c-0.3-1.9-1-3.8-2.3-5.5
		c-0.2-0.2-0.3-0.4-0.5-0.6l-0.6-0.6c-0.2-0.2-0.4-0.4-0.6-0.6c-0.3-0.2-0.5-0.4-0.8-0.6l-0.4-0.3c-0.1-0.1-0.3-0.2-0.4-0.2
		l-0.5-0.3l-0.3-0.2l-0.1,0C64,26,64.4,26.2,63.9,26z"/>
	<path d="M464.3,96.6c-0.5-0.4-1-0.8-1.5-1.1c-4-3.1-7.1-6.7-9.3-10.3c-2.2-3.6-3.6-7.1-4.5-10.1c-0.8-3-1.2-5.5-1.4-7.2
		c-0.1-1.7-0.2-2.7-0.2-2.7s0,0.2-0.1,0.7c-0.1,0.4-0.2,1.1-0.4,1.9c-0.2,1.7-0.6,4.3-0.4,7.7c0.2,3.3,0.9,7.4,2.6,11.9
		c1.7,4.5,4.6,9.2,8.7,13.6c0.5,0.5,1.1,1.1,1.6,1.6l0.4,0.4l0.5,0.4l0.8,0.7l0.8,0.7c0.3,0.2,0.6,0.5,1,0.8c0.7,0.5,1.3,1,2,1.5
		c2.6,1.9,5.6,3.5,8.5,5c6,3,12.3,5.3,18.2,8.1c0.7,0.4,1.4,0.7,2.2,1.1c0.7,0.4,1.4,0.8,2.1,1.1c0.7,0.4,1.4,0.8,2,1.2l0.2,0.1
		c0,0,0,0,0,0l0.1,0.1l0.5,0.4l1.1,0.7l0.3,0.2l0.2,0.2l0.4,0.3l0.8,0.6c0.5,0.5,1.1,1,1.7,1.5l1.5,1.6l1.4,1.7
		c0.4,0.6,0.8,1.1,1.2,1.7c0.3,0.6,0.7,1.2,1,1.8l0.4,0.9l0.2,0.4l0,0.1l0.1,0.3c0.1,0.4,0.3,0.9,0.4,1.3c0,0.3,0.1,0.5,0.1,0.7
		c0.1,0.2,0.1,0.6,0.1,0.9c0,0.3,0.1,0.6,0.1,1l0.1,1l0,1c-0.1,1.3-0.2,2.7-0.6,4c-0.1,0.7-0.4,1.3-0.6,2c-0.3,0.6-0.5,1.3-0.8,1.9
		c-0.6,1.2-1.4,2.4-2.2,3.4c-0.2,0.3-0.4,0.5-0.6,0.8l-0.7,0.7c-0.2,0.3-0.5,0.4-0.7,0.7l-0.4,0.3l-0.1,0.1c0.1,0-0.1,0.1,0,0
		l-0.2,0.1l-1.1,0.8c-0.3,0.2-0.5,0.3-0.7,0.5l-0.4,0.2l-0.5,0.2c-0.3,0.2-0.6,0.3-0.9,0.5c-2.5,1.1-5.2,1.8-8,2
		c-1.4,0.1-2.8,0-4.1-0.2c-1.4-0.2-2.7-0.5-4-0.9l-1-0.3c-0.3-0.1-0.6-0.3-0.9-0.4l-0.5-0.2l-0.1,0c-0.1,0,0.4,0.2,0.2,0.1l-0.1-0.1
		l-0.3-0.2l-1.1-0.6l-0.3-0.2l-0.1-0.1l-0.1-0.1l-0.4-0.2l-0.7-0.5c-0.5-0.3-1-0.8-1.5-1.2c-2-1.7-3.5-3.7-4.4-5.8l-0.3-0.8
		l-0.1-0.2c0,0.1-0.1-0.2,0,0.1l0-0.1l0-0.1l-0.2-0.6l-0.1-0.3l0-0.1l-0.1-0.3c-0.1-0.2-0.1-0.5-0.1-0.7c-0.1-1.1-0.1-2.2,0.1-3.3
		c0.3-2.2,1.3-4.4,2.6-6.1c1.3-1.8,2.9-3,4.6-3.7c0.8-0.3,1.7-0.5,2.6-0.6c0.9,0,1.8,0.1,2.6,0.3c0.9,0.2,1.7,0.6,2.5,1l0.2,0.1l0,0
		c0,0,0.1,0.1-0.1-0.1l0.1,0.1l0.3,0.2c0.2,0.1,0.5,0.3,0.6,0.4c0.3,0.2,0.5,0.4,0.8,0.7c1.1,1.1,1.9,2.5,2.4,3.9
		c0.9,2.8,0.6,5.3,0,6.8c-0.1,0.4-0.3,0.7-0.5,1c-0.1,0.3-0.3,0.5-0.4,0.7c-0.2,0.4-0.4,0.6-0.4,0.6s0.2-0.1,0.5-0.4
		c0.2-0.1,0.4-0.3,0.6-0.6c0.2-0.3,0.5-0.5,0.8-0.9c0.6-0.7,1.1-1.7,1.5-3c0.4-1.3,0.6-2.9,0.4-4.7c-0.2-1.8-0.7-3.8-2-5.7
		c-0.3-0.5-0.7-1-1.1-1.5c-0.2-0.2-0.4-0.4-0.6-0.6l-0.3-0.3l-0.1-0.1l-0.2-0.1l-0.2-0.1c-0.9-0.8-2-1.5-3.2-2.1
		c-1.2-0.6-2.6-1.1-4.1-1.3c-1.5-0.2-3.1-0.2-4.7,0.2c-3.2,0.7-6.1,2.4-8.5,4.8c-2.4,2.4-4.3,5.4-5.4,9c-0.6,1.8-0.9,3.7-0.9,5.7
		c0,0.5,0,1,0.1,1.6l0.1,0.9l0.1,0.4l0,0.3l0.1,0.6l0,0.1l0,0.1l0.1,0.3l0.1,0.4c0.1,0.5,0.3,1,0.4,1.4c1.2,3.8,3.4,7.4,6.2,10.3
		c0.7,0.7,1.4,1.4,2.3,2.1l1.3,1l0.7,0.5l0.2,0.1l0.1,0.1l0.3,0.2l1.1,0.7l0.3,0.2l0.1,0.1c-0.2-0.1,0.3,0.2,0.3,0.2l0.1,0l0.7,0.4
		c0.5,0.2,0.9,0.5,1.4,0.7l1.4,0.6c1.9,0.8,4,1.4,6.1,1.8c2.1,0.4,4.2,0.6,6.4,0.6c2.2,0,4.3-0.2,6.5-0.6c2.2-0.5,4.3-1.1,6.4-2
		c0.5-0.2,1-0.5,1.5-0.7l0.8-0.4l0.8-0.5c0.5-0.3,1.1-0.7,1.6-1l1.1-0.8l0.3-0.2l0.1,0c0.4-0.3,0.2-0.1,0.3-0.2l0.2-0.1l0.7-0.6
		c0.4-0.4,0.9-0.7,1.3-1.2l1.2-1.2c0.4-0.4,0.8-0.9,1.1-1.3c1.5-1.8,2.8-3.7,3.8-5.8c0.6-1,1-2.1,1.4-3.1c0.4-1.1,0.8-2.2,1-3.3
		c0.6-2.2,0.9-4.5,1-6.9c0-0.6,0-1.2,0-1.7l-0.1-1.8c0-0.6-0.1-1.2-0.2-1.8c-0.1-0.6-0.2-1.1-0.3-1.8c-0.2-0.6-0.3-1.3-0.5-1.9
		c-0.2-0.5-0.3-0.9-0.4-1.3l-0.3-0.9l-0.4-0.8l-0.7-1.6c-0.5-1-1.1-2-1.7-3c-0.6-0.9-1.3-1.8-2-2.7c-0.7-0.8-1.4-1.7-2.2-2.5
		c-0.8-0.7-1.5-1.5-2.3-2.2c-0.8-0.7-1.6-1.3-2.5-2l-1.4-0.9l-0.7-0.5l-0.3-0.2l-0.3-0.2l-1.1-0.7l-0.6-0.3l-0.1-0.1l-0.2-0.1
		l-0.1,0l-0.3-0.2c-0.9-0.5-1.7-0.9-2.6-1.3c-0.9-0.4-1.7-0.8-2.6-1.2c-0.9-0.4-1.7-0.7-2.6-1.1c-6.8-2.7-13.2-4.4-18.9-6.5
		c-2.8-1-5.4-2.2-7.8-3.4c-0.6-0.3-1.1-0.6-1.7-0.9c-0.3-0.2-0.5-0.3-0.8-0.5l-0.9-0.6l-0.9-0.6l-0.2-0.1l-0.1-0.1
		c-0.1-0.1,0.1,0.1,0,0l0,0L464.3,96.6z"/>
	<path d="M745.3,44.8c0.1-0.3,0.1-0.7,0.1-1l0-0.5l0-0.1l0-0.2l0,0l0-0.2l0-0.7c0-0.3-0.1-0.7-0.1-1.1l-0.1-0.5l-0.1-0.5
		c-0.1-0.3-0.1-0.6-0.2-0.9c-0.3-1.2-0.7-2.4-1.2-3.6c-0.5-1.1-1.1-2.2-1.9-3.2c-1.4-2-3.2-3.6-5.2-4.9c-0.5-0.3-1-0.6-1.6-0.8
		l-0.4-0.2l-0.2-0.1l-0.1,0l-0.2-0.1l-0.6-0.2c-0.2-0.1-0.5-0.2-0.8-0.3l-0.9-0.3c-0.6-0.1-1.1-0.2-1.7-0.3
		c-2.3-0.3-4.6-0.1-6.8,0.6l-0.8,0.3l-0.2,0.1l0,0c-0.5,0.2-0.2,0.1-0.3,0.1l-0.1,0l-0.3,0.2l-0.6,0.3c-0.1,0-0.2,0.1-0.4,0.2
		l-0.4,0.3c-0.3,0.2-0.5,0.4-0.8,0.6c-0.2,0.2-0.4,0.4-0.6,0.6l-0.6,0.6c-0.2,0.2-0.3,0.4-0.5,0.6c-1.3,1.7-2,3.6-2.3,5.5
		c-0.3,1.9-0.1,3.8,0.7,5.5c0.2,0.4,0.4,0.8,0.7,1.2c0.3,0.4,0.6,0.7,0.8,1c0.3,0.3,0.6,0.6,1,0.8c0.3,0.3,0.7,0.4,1,0.6
		c0.7,0.4,1.4,0.5,2,0.7l0.1,0l0.1,0l0.1,0l0.2,0c0.1,0,0.3,0,0.4,0.1c0.4,0,0.8,0.1,1.1,0c1.3-0.1,2.4-0.5,3.2-1
		c1.7-1,2.5-2.5,2.7-3.4c0.3-1,0.2-1.5,0.2-1.5c0,0,0,0.1-0.1,0.3c-0.1,0.2-0.3,0.5-0.5,0.9c-0.5,0.7-1.5,1.6-3,2
		c-0.7,0.2-1.6,0.3-2.4,0.1c-0.2,0-0.4-0.1-0.5-0.1c-0.1,0-0.2-0.1-0.4-0.1l-0.2-0.1l0,0c0.2,0,0,0,0.1,0l0,0l-0.1,0
		c-0.4-0.3-0.8-0.4-1.2-0.8c-0.4-0.3-0.6-0.7-0.9-1c-0.1-0.2-0.2-0.4-0.3-0.6c-0.1-0.2-0.1-0.4-0.2-0.6c-0.2-0.9-0.1-1.9,0.3-3
		c0.4-1,1-2,1.8-2.8l0.3-0.3l0.3-0.2c0.1-0.1,0.2-0.2,0.3-0.2c0.1,0,0.2-0.1,0.2-0.1l0.1-0.1c0,0,0.1,0,0.2-0.1l0.6-0.2l0.3-0.1
		l0.1,0c-0.1,0,0.3-0.1-0.2,0.1l0,0l0.1,0l0.4-0.1c1.1-0.2,2.4-0.2,3.7,0.2c0.3,0.1,0.6,0.2,0.9,0.3l0.4,0.2c0.1,0,0.2,0.1,0.5,0.2
		l0.6,0.3l0.2,0.1l0.1,0c0,0-0.3-0.1-0.1-0.1l0,0l0.2,0.1c0.3,0.2,0.6,0.4,0.8,0.6c1.1,0.8,2.1,1.9,2.8,3.1c0.8,1.2,1.3,2.5,1.5,3.9
		c0,0.2,0,0.3,0.1,0.5l0,0.3l0,0.2l0,0.4l0,0.7l0,0.2c0-0.2,0,0,0-0.1l0,0.1l0,0.2c0,0.2,0,0.3-0.1,0.5c-0.1,0.3-0.1,0.6-0.2,1
		c-0.2,0.6-0.4,1.3-0.8,1.9c-0.3,0.6-0.7,1.2-1.2,1.7c-0.8,1.1-2,1.9-3.1,2.4c-0.1,0-0.2,0.1-0.3,0.1c-0.2,0.1-0.5,0.1-0.7,0.2
		l-0.2,0.1l0,0l-0.2,0l-0.5,0.1c-0.3,0.1-0.7,0.1-1,0.1c-0.3,0-0.7,0-1.1,0c-1.4,0-3-0.3-4.4-0.8l-0.7-0.2l-0.3-0.1l-0.1,0l-0.1-0.1
		l-1.1-0.5c-0.4-0.2-0.8-0.3-1.1-0.5c-0.4-0.2-0.8-0.4-1.1-0.6c-3.1-1.6-6.1-3.6-9.4-5.3c-0.8-0.4-1.6-0.8-2.5-1.2
		c-0.9-0.4-1.8-0.7-2.7-1c-0.8-0.3-1.6-0.4-2.3-0.6l-0.6-0.1l-0.4-0.1l-0.3,0c-0.4-0.1-0.8-0.1-1.2-0.2c-3.3-0.4-6.3-0.1-8.9,0.6
		c-1.3,0.3-2.4,0.8-3.4,1.3c-1,0.5-1.9,1.1-2.7,1.5c-0.7,0.6-1.4,1.1-1.9,1.5c-0.6,0.4-0.9,0.9-1.2,1.2c-0.6,0.7-1,1.1-1,1.1
		s0.4-0.2,1.3-0.7c0.2-0.1,0.4-0.2,0.7-0.4c0.3-0.1,0.5-0.3,0.8-0.4c0.6-0.2,1.3-0.5,2.1-0.8c0.8-0.2,1.7-0.5,2.7-0.7
		c1-0.1,2-0.4,3.2-0.4c2.2-0.2,4.8,0.2,7.3,1c0.3,0.1,0.6,0.2,1,0.3l0.1,0c-0.1,0,0.1,0,0,0l0.1,0l0.1,0.1l0.5,0.2
		c0.7,0.3,1.5,0.6,2.2,0.9c0.6,0.4,1.2,0.7,1.8,1c0.6,0.4,1.3,0.9,1.9,1.3c2.7,1.8,5.4,4.1,8.8,6.3c0.4,0.3,0.9,0.5,1.3,0.8
		c0.4,0.3,0.9,0.5,1.4,0.8c0.5,0.2,0.9,0.5,1.4,0.7l0.2,0.1l0,0l0.2,0.1l0.1,0l0.3,0.1l0.7,0.3c2.2,0.9,4.5,1.5,7,1.6
		c0.6,0,1.3,0,1.9,0c0.6-0.1,1.3-0.1,1.9-0.2l1-0.2l0.5-0.1l0.6-0.2c0.2-0.1,0.4-0.1,0.7-0.2l1.1-0.4c2.5-1.1,4.6-2.8,6.3-4.8
		c0.8-1,1.6-2.1,2.1-3.3c0.6-1.2,1.1-2.4,1.4-3.7C745.1,46.1,745.2,45.5,745.3,44.8z"/>
	<path d="M605.4,44c6.2-6.4,1.1-16-6.8-17.4c-10.8-1.9-17.6,8.6-24.4,14.9c-16.2,15.2-37.7,23.6-60,23.3c-1,0-1.8,0.4-2.3,1
		c-2,1.6-2.8,4.8-0.1,6.7c15.2,10.6,33.7,6.7,50,1c14-4.9,27.8-9.1,42.1-11.8c5.4,1.7,11.7,1.8,16.6,2.6
		c18.1,2.8,33.8,11.6,35.2,31.4c4.3-7.1,5.2-16.8-1.2-22.8c3.1,1.4,6.2,2,9.4,1.6c-5.3-7.1-9.5-13.3-16.2-16.1
		c6.3,0.2,12.7,0.7,19,1.5c13.8,1.8,27.2,5,39.1,12.6c6.1,3.9,12.1,9.3,13.2,16.4c0.8,5-1.2,10.5-5.3,13.5c-5.3,4-14.1,3.4-16.6-3.5
		c-1.2-3.5,1.1-9.2,5.8-9.7c4.2-0.4,6.9,2.5,7.2,5.5c-4-5.2-8.9,0-7.6,3.8c0.7,2.2,3.7,3.8,6.8,2.5c3-1.3,5.2-4.9,4.2-8.4
		c-2.1-7.6-12.2-10.2-18.1-5.5c-10.7,8.5-1.1,24.5,10.1,26.3c5.8,0.9,12-1.1,16.5-4.9c6.1-5.1,9.3-13.3,8.3-21.2
		c-1-7.7-5.8-14.6-11.9-19.4c-6.1-4.8-13.4-7.8-20.8-10.2c-17-5.5-35-8.1-53.1-8.3c0.7-1.2,1.2-2.5,1.3-4.2
		c-6.8-0.1-13.1-1.1-19.5,1.5c1-1.8,2.1-3.6,1.2-7.2c-7.4-0.4-10.1,6-18.2,7.3c-17.2,2.8-12.2-10.7-12.2-10.7
		c-9,3.1-6.6,12-2.5,18.4c-12,2.8-23.5,6.9-35.4,10.7c-10,3.2-21.3,6.6-31.6,4.6c12.7-1.7,25.1-5.9,36-12.7
		c7.4-4.6,14-10.2,19.9-16.6c3.1-3.3,6.5-7.3,11.2-8c2.5-0.4,5.7-0.1,6.9,2.5c0.7,1.6,0.8,3.2-0.5,4.5
		C598.4,42.5,602.7,46.8,605.4,44z"/>
</g>
</svg>
